<svg version="1.1" xmlns="http://www.w3.org/2000/svg" viewBox="0 0 815 417" width="815" height="417">
  <!-- svg-source:excalidraw -->
  
  <defs>
    <style class="style-fonts">
      @font-face {
        font-family: "Virgil";
        src: url("https://excalidraw.com/Virgil.woff2");
      }
      @font-face {
        font-family: "Cascadia";
        src: url("https://excalidraw.com/Cascadia.woff2");
      }
    </style>
  </defs>
  <rect x="0" y="0" width="815" height="417" fill="#ffffff"/><g transform="translate(352 10) rotate(0 -6 74.5)" stroke="none"><path fill="#1e1e1e" d="M 1.99,0.16 Q 1.99,0.16 -1.54,42.99 -5.09,85.82 -6.62,104.02 -8.15,122.22 -8.22,122.48 -8.28,122.74 -8.43,122.97 -8.58,123.20 -8.79,123.37 -9.00,123.54 -9.25,123.64 -9.51,123.73 -9.78,123.74 -10.05,123.75 -10.31,123.67 -10.57,123.59 -10.79,123.43 -11.01,123.27 -11.17,123.05 -11.33,122.83 -11.41,122.57 -11.49,122.31 -11.48,122.04 -11.48,121.77 -11.38,121.51 -11.29,121.26 -11.12,121.04 -10.95,120.83 -10.72,120.69 -10.49,120.54 -10.23,120.47 -9.97,120.41 -9.69,120.43 -9.42,120.45 -9.17,120.56 -8.92,120.67 -8.72,120.85 -8.52,121.03 -8.39,121.27 -8.25,121.50 -8.20,121.77 -8.15,122.04 -8.19,122.30 -8.22,122.57 -8.34,122.82 -8.46,123.06 -8.65,123.25 -8.85,123.45 -9.09,123.57 -9.33,123.69 -9.60,123.72 -9.87,123.76 -10.14,123.71 -10.41,123.66 -10.64,123.53 -10.88,123.39 -11.06,123.19 -11.24,122.99 -11.35,122.74 -11.46,122.49 -11.48,122.22 -11.50,121.95 -11.50,121.95 -11.50,121.95 -10.10,103.74 -8.70,85.52 -5.35,42.68 -1.99,-0.16 -1.94,-0.39 -1.89,-0.63 -1.79,-0.84 -1.68,-1.06 -1.53,-1.25 -1.38,-1.44 -1.19,-1.58 -0.99,-1.73 -0.77,-1.82 -0.55,-1.91 -0.31,-1.95 -0.08,-1.99 0.15,-1.97 0.39,-1.95 0.62,-1.88 0.85,-1.80 1.05,-1.67 1.26,-1.54 1.43,-1.37 1.59,-1.20 1.71,-0.99 1.83,-0.78 1.90,-0.55 1.97,-0.32 1.98,-0.08 1.99,0.16 1.99,0.16 L 1.99,0.16 Z"/></g><g transform="translate(408 94) rotate(0 135.5 69.5)" stroke="none"><path fill="#1e1e1e" d="M 0.88,1.28 Q 0.88,1.28 -11.20,9.59 -23.30,17.90 -28.68,22.24 -34.06,26.59 -36.21,29.94 -38.36,33.29 -38.19,37.50 -38.01,41.70 -32.36,46.52 -26.71,51.34 -18.94,54.87 -11.17,58.40 -1.55,61.36 8.05,64.31 17.64,67.30 27.22,70.30 27.37,70.36 27.51,70.43 27.64,70.53 27.77,70.63 27.86,70.75 27.96,70.88 28.03,71.03 28.10,71.17 28.13,71.33 28.16,71.49 28.15,71.65 28.14,71.81 28.09,71.96 28.04,72.12 27.96,72.25 27.88,72.39 27.77,72.50 27.65,72.62 27.52,72.70 27.38,72.79 27.23,72.83 27.07,72.88 26.91,72.89 26.75,72.90 26.59,72.87 26.44,72.85 21.81,85.84 17.18,98.83 7.80,106.47 -1.58,114.10 -12.55,118.49 -23.53,122.88 -41.44,127.03 -59.36,131.18 -75.31,133.81 -91.26,136.43 -100.71,136.97 -110.15,137.51 -115.07,135.57 -119.98,133.63 -121.22,130.40 -122.47,127.17 -122.61,127.09 -122.75,127.02 -122.86,126.91 -122.98,126.80 -123.07,126.67 -123.16,126.54 -123.21,126.39 -123.27,126.24 -123.29,126.08 -123.30,125.93 -123.28,125.77 -123.26,125.61 -123.20,125.46 -123.14,125.32 -123.05,125.19 -122.96,125.06 -122.84,124.95 -122.72,124.85 -122.58,124.78 -122.44,124.71 -122.29,124.67 -122.13,124.63 -121.97,124.64 -121.81,124.64 -121.66,124.68 -121.51,124.72 -55.71,116.07 10.08,107.42 47.98,103.76 85.88,100.10 108.96,100.84 132.04,101.58 157.95,103.62 183.85,105.67 210.91,106.53 237.98,107.40 269.51,103.17 301.04,98.95 323.01,92.29 344.98,85.62 358.82,77.67 372.66,69.72 379.30,62.13 385.95,54.55 388.75,49.09 391.55,43.64 392.78,41.27 394.01,38.90 394.14,38.73 394.27,38.56 394.44,38.44 394.62,38.31 394.82,38.26 395.02,38.20 395.24,38.21 395.45,38.22 395.65,38.29 395.84,38.37 396.01,38.51 396.17,38.64 396.28,38.82 396.39,39.00 396.44,39.21 396.49,39.42 396.47,39.63 396.45,39.84 396.36,40.03 396.27,40.23 396.13,40.38 395.98,40.54 395.80,40.64 395.61,40.74 395.40,40.78 395.19,40.81 394.98,40.78 394.77,40.75 394.58,40.65 394.39,40.55 394.25,40.40 394.10,40.25 394.01,40.06 393.92,39.86 393.89,39.65 393.87,39.44 393.91,39.23 393.95,39.03 394.06,38.84 394.17,38.66 394.33,38.52 394.49,38.38 394.69,38.30 394.88,38.22 395.10,38.21 395.31,38.19 395.51,38.25 395.72,38.30 395.90,38.42 396.07,38.54 396.20,38.71 396.33,38.88 396.40,39.08 396.47,39.28 396.47,39.49 396.48,39.70 396.41,39.90 396.34,40.11 396.34,40.11 396.34,40.11 395.12,42.48 393.89,44.85 390.91,50.56 387.93,56.27 380.96,64.12 374.00,71.97 359.88,80.05 345.75,88.13 323.58,94.84 301.40,101.55 269.65,105.79 237.90,110.03 210.77,109.16 183.64,108.29 157.80,106.25 131.96,104.21 109.04,103.46 86.13,102.71 48.27,106.37 10.42,110.03 -56.02,118.60 -122.47,127.17 -122.61,127.09 -122.75,127.02 -122.86,126.91 -122.98,126.80 -123.07,126.67 -123.16,126.54 -123.21,126.39 -123.27,126.24 -123.29,126.08 -123.30,125.93 -123.28,125.77 -123.26,125.61 -123.20,125.46 -123.14,125.32 -123.05,125.19 -122.96,125.06 -122.84,124.95 -122.72,124.85 -122.58,124.78 -122.44,124.71 -122.29,124.67 -122.13,124.63 -121.97,124.64 -121.81,124.64 -121.66,124.68 -121.51,124.72 -120.03,128.18 -118.56,131.64 -114.38,133.26 -110.20,134.89 -100.94,134.36 -91.69,133.83 -75.82,131.22 -59.95,128.61 -42.23,124.51 -24.50,120.42 -13.86,116.22 -3.21,112.02 5.80,104.86 14.81,97.70 21.02,84.00 27.22,70.30 27.36,70.36 27.51,70.43 27.64,70.53 27.77,70.63 27.86,70.75 27.96,70.88 28.03,71.03 28.10,71.17 28.13,71.33 28.16,71.49 28.15,71.65 28.14,71.81 28.09,71.96 28.04,72.11 27.96,72.25 27.88,72.39 27.77,72.50 27.65,72.62 27.52,72.70 27.38,72.79 27.23,72.83 27.07,72.88 26.91,72.89 26.75,72.90 26.59,72.87 26.44,72.85 16.85,69.86 7.26,66.87 -2.51,63.86 -12.29,60.86 -20.39,57.13 -28.49,53.40 -34.49,47.91 -40.49,42.42 -40.65,37.24 -40.82,32.06 -38.36,28.22 -35.91,24.38 -30.45,19.91 -24.99,15.44 -12.94,7.08 -0.88,-1.28 -0.72,-1.37 -0.55,-1.46 -0.37,-1.50 -0.18,-1.55 -0.00,-1.55 0.18,-1.55 0.37,-1.50 0.55,-1.46 0.72,-1.37 0.88,-1.28 1.02,-1.16 1.16,-1.03 1.27,-0.88 1.38,-0.72 1.44,-0.55 1.51,-0.37 1.53,-0.18 1.56,-0.00 1.53,0.18 1.51,0.37 1.45,0.54 1.38,0.72 1.27,0.88 1.16,1.03 1.02,1.16 0.88,1.28 0.88,1.28 L 0.88,1.28 Z"/></g><g transform="translate(656 73) rotate(0 -255.5 89)" stroke="none"><path fill="#1e1e1e" d="M 0.22,1.55 Q 0.22,1.55 -1.76,1.81 -3.74,2.08 -7.20,4.36 -10.67,6.65 -14.72,11.00 -18.77,15.34 -21.60,20.82 -24.43,26.30 -25.91,31.70 -27.40,37.11 -26.90,43.84 -26.39,50.56 -22.52,57.87 -18.65,65.18 -13.94,69.66 -9.23,74.15 -3.56,77.48 2.10,80.80 8.84,84.25 15.58,87.69 26.00,94.67 36.42,101.65 41.74,106.07 47.06,110.50 49.67,113.32 52.27,116.14 53.12,119.84 53.97,123.54 50.75,127.24 47.54,130.94 37.11,135.96 26.69,140.97 7.87,146.53 -10.94,152.09 -42.52,159.05 -74.10,166.01 -104.24,169.55 -134.38,173.09 -165.65,172.86 -196.91,172.64 -226.36,167.94 -255.81,163.23 -281.04,154.89 -306.27,146.54 -324.84,135.76 -343.40,124.98 -355.64,114.61 -367.89,104.23 -375.69,95.77 -383.50,87.31 -387.63,82.60 -391.76,77.90 -393.63,77.04 -395.50,76.18 -398.98,81.21 -402.46,86.23 -407.74,94.96 -413.02,103.70 -419.59,114.33 -426.17,124.97 -432.38,136.92 -438.60,148.87 -443.82,161.11 -449.04,173.35 -451.52,182.51 -454.01,191.67 -455.07,196.42 -456.13,201.17 -455.75,204.36 -455.36,207.56 -452.78,210.15 -450.19,212.74 -444.08,214.69 -437.97,216.64 -429.37,217.50 -420.78,218.37 -409.38,218.17 -397.98,217.97 -385.08,217.31 -372.17,216.66 -357.46,216.38 -342.74,216.10 -335.63,215.98 -328.52,215.86 -324.76,216.42 -321.00,216.99 -321.13,217.50 -321.26,218.00 -321.08,218.04 -320.89,218.08 -320.72,218.16 -320.55,218.24 -320.40,218.35 -320.25,218.47 -320.13,218.62 -320.02,218.77 -319.94,218.95 -319.87,219.12 -319.84,219.31 -319.80,219.49 -319.82,219.68 -319.83,219.87 -319.89,220.05 -319.95,220.23 -320.05,220.39 -320.15,220.55 -320.28,220.69 -320.42,220.82 -320.58,220.91 -320.74,221.01 -320.93,221.07 -321.11,221.12 -321.30,221.13 -321.49,221.14 -324.04,221.69 -326.59,222.24 -333.07,222.55 -339.55,222.87 -351.55,221.55 -363.55,220.24 -375.92,216.49 -388.28,212.75 -400.48,206.82 -412.68,200.89 -424.52,192.87 -436.36,184.85 -448.95,170.73 -461.54,156.60 -470.63,143.39 -479.72,130.17 -488.19,114.75 -496.67,99.34 -502.88,82.95 -509.10,66.56 -513.76,46.03 -518.42,25.50 -520.40,13.62 -522.38,1.73 -523.22,-8.82 -524.07,-19.37 -524.42,-26.15 -524.78,-32.93 -524.93,-36.09 -525.08,-39.25 -525.19,-39.44 -525.30,-39.64 -525.29,-39.81 -525.28,-39.98 -525.23,-40.14 -525.17,-40.30 -525.08,-40.44 -524.99,-40.59 -524.87,-40.71 -524.75,-40.82 -524.61,-40.91 -524.46,-41.00 -524.30,-41.04 -524.14,-41.09 -523.97,-41.10 -523.80,-41.11 -523.63,-41.08 -523.47,-41.04 -523.31,-40.97 -523.16,-40.90 -523.03,-40.79 -522.89,-40.69 -522.79,-40.55 -522.69,-40.42 -522.62,-40.26 -522.55,-40.11 -522.53,-39.94 -522.50,-39.78 -522.57,-36.08 -522.64,-32.39 -522.65,-25.66 -522.66,-18.94 -523.54,-12.82 -524.41,-6.70 -526.26,-1.70 -528.11,3.29 -531.56,7.55 -535.02,11.80 -541.13,17.07 -547.23,22.33 -550.93,25.67 -554.63,29.01 -557.37,31.32 -560.12,33.62 -561.54,34.91 -562.95,36.21 -563.10,36.30 -563.24,36.39 -563.40,36.45 -563.56,36.51 -563.73,36.52 -563.89,36.54 -564.06,36.51 -564.23,36.49 -564.39,36.42 -564.54,36.36 -564.68,36.26 -564.82,36.16 -564.93,36.03 -565.03,35.90 -565.11,35.75 -565.18,35.60 -565.22,35.43 -565.26,35.26 -565.25,35.10 -565.25,34.93 -565.20,34.76 -565.16,34.60 -565.07,34.45 -564.99,34.30 -564.88,34.18 -564.76,34.06 -562.95,34.41 -561.14,34.77 -554.72,33.54 -548.30,32.31 -527.01,28.66 -505.71,25.00 -481.72,20.59 -457.73,16.17 -430.83,11.99 -403.93,7.82 -376.36,5.47 -348.80,3.12 -321.54,2.12 -294.29,1.12 -267.16,1.28 -240.04,1.43 -216.97,3.52 -193.90,5.60 -178.59,8.51 -163.28,11.41 -155.88,13.52 -148.47,15.63 -144.90,17.75 -141.34,19.86 -139.02,22.38 -136.70,24.90 -136.57,25.12 -136.44,25.34 -136.38,25.58 -136.33,25.83 -136.36,26.09 -136.39,26.34 -136.50,26.57 -136.61,26.80 -136.78,26.99 -136.96,27.17 -137.19,27.29 -137.41,27.41 -137.66,27.45 -137.92,27.48 -138.17,27.44 -138.42,27.40 -138.64,27.28 -138.87,27.16 -139.04,26.97 -139.22,26.78 -139.32,26.55 -139.43,26.32 -139.45,26.07 -139.48,25.81 -139.42,25.56 -139.36,25.31 -139.23,25.10 -139.10,24.88 -138.90,24.72 -138.71,24.55 -138.47,24.46 -138.23,24.37 -137.98,24.35 -137.72,24.34 -137.48,24.41 -137.23,24.48 -137.02,24.63 -136.81,24.77 -136.66,24.98 -136.51,25.18 -136.43,25.42 -136.35,25.66 -136.35,25.92 -136.35,26.17 -136.43,26.42 -136.52,26.66 -136.67,26.86 -136.83,27.06 -137.04,27.20 -137.25,27.34 -137.50,27.41 -137.75,27.48 -138.00,27.46 -138.25,27.45 -138.49,27.35 -138.73,27.25 -138.92,27.09 -139.11,26.92 -139.11,26.92 -139.11,26.92 -140.92,24.51 -142.73,22.10 -145.97,20.13 -149.22,18.17 -156.50,16.09 -163.78,14.02 -178.96,11.14 -194.14,8.25 -217.10,6.18 -240.06,4.11 -267.12,3.97 -294.19,3.82 -321.37,4.83 -348.56,5.83 -376.04,8.19 -403.51,10.55 -430.36,14.75 -457.21,18.94 -481.22,23.40 -505.22,27.86 -526.50,31.56 -547.78,35.26 -555.37,35.73 -562.95,36.21 -563.10,36.30 -563.24,36.39 -563.40,36.45 -563.56,36.51 -563.73,36.52 -563.89,36.54 -564.06,36.51 -564.23,36.49 -564.39,36.42 -564.54,36.36 -564.68,36.26 -564.82,36.16 -564.93,36.03 -565.03,35.90 -565.11,35.75 -565.18,35.60 -565.22,35.43 -565.26,35.26 -565.25,35.10 -565.25,34.93 -565.20,34.76 -565.16,34.60 -565.07,34.45 -564.99,34.30 -564.88,34.18 -564.76,34.06 -563.28,32.83 -561.81,31.61 -559.10,29.34 -556.39,27.06 -552.67,23.70 -548.94,20.34 -543.00,15.23 -537.05,10.13 -533.80,6.23 -530.54,2.33 -528.78,-2.37 -527.01,-7.09 -526.15,-13.02 -525.29,-18.95 -525.28,-25.68 -525.27,-32.41 -525.29,-36.02 -525.30,-39.64 -525.29,-39.81 -525.28,-39.98 -525.23,-40.14 -525.17,-40.30 -525.08,-40.44 -524.99,-40.59 -524.87,-40.71 -524.75,-40.82 -524.61,-40.91 -524.46,-41.00 -524.30,-41.04 -524.14,-41.09 -523.97,-41.10 -523.80,-41.11 -523.63,-41.08 -523.47,-41.04 -523.31,-40.97 -523.16,-40.90 -523.03,-40.80 -522.89,-40.69 -522.79,-40.55 -522.69,-40.42 -522.62,-40.26 -522.55,-40.11 -522.53,-39.94 -522.50,-39.78 -522.48,-39.59 -522.46,-39.40 -522.31,-36.23 -522.16,-33.07 -521.80,-26.32 -521.45,-19.58 -520.62,-9.14 -519.79,1.30 -517.82,13.11 -515.86,24.92 -511.25,45.28 -506.64,65.63 -500.50,81.85 -494.37,98.07 -485.96,113.38 -477.55,128.69 -468.56,141.77 -459.58,154.85 -447.22,168.77 -434.87,182.69 -423.20,190.61 -411.53,198.53 -399.52,204.38 -387.51,210.24 -375.38,213.93 -363.26,217.63 -351.46,218.94 -339.67,220.25 -333.44,219.97 -327.22,219.69 -324.24,218.85 -321.26,218.00 -321.08,218.04 -320.89,218.08 -320.72,218.16 -320.55,218.24 -320.40,218.35 -320.25,218.47 -320.13,218.62 -320.02,218.77 -319.94,218.95 -319.87,219.12 -319.84,219.31 -319.80,219.49 -319.82,219.68 -319.83,219.87 -319.89,220.05 -319.95,220.23 -320.05,220.39 -320.15,220.55 -320.28,220.69 -320.42,220.82 -320.58,220.91 -320.74,221.01 -320.93,221.07 -321.11,221.12 -321.30,221.13 -321.49,221.14 -322.13,219.72 -322.77,218.30 -325.63,218.39 -328.48,218.48 -335.59,218.60 -342.69,218.72 -357.36,219.00 -372.04,219.28 -384.99,219.94 -397.94,220.60 -409.49,220.79 -421.04,220.98 -429.91,220.06 -438.79,219.14 -445.38,216.88 -451.97,214.63 -454.90,211.40 -457.83,208.16 -458.27,204.41 -458.70,200.65 -457.62,195.82 -456.54,190.98 -454.00,181.65 -451.46,172.32 -446.19,159.99 -440.93,147.66 -434.67,135.62 -428.40,123.59 -421.83,112.96 -415.27,102.34 -409.92,93.51 -404.58,84.69 -400.65,79.51 -396.72,74.34 -393.33,75.20 -389.94,76.06 -385.76,80.79 -381.57,85.53 -373.88,93.88 -366.18,102.23 -354.13,112.47 -342.07,122.71 -323.75,133.38 -305.44,144.05 -280.41,152.35 -255.39,160.64 -226.14,165.33 -196.89,170.02 -165.79,170.25 -134.69,170.48 -104.67,166.96 -74.66,163.44 -43.17,156.51 -11.69,149.57 6.93,144.08 25.56,138.60 35.61,133.85 45.66,129.11 48.68,126.09 51.70,123.08 50.98,120.43 50.26,117.79 47.81,115.16 45.37,112.53 40.16,108.18 34.95,103.84 24.66,96.95 14.37,90.06 7.56,86.58 0.75,83.10 -5.15,79.59 -11.07,76.09 -16.04,71.28 -21.01,66.46 -25.05,58.65 -29.08,50.84 -29.57,43.64 -30.06,36.44 -28.49,30.73 -26.92,25.02 -23.90,19.21 -20.89,13.41 -16.59,8.79 -12.30,4.18 -8.30,1.62 -4.30,-0.93 -2.26,-1.24 -0.22,-1.55 -0.03,-1.55 0.15,-1.56 0.34,-1.52 0.52,-1.47 0.69,-1.39 0.86,-1.31 1.00,-1.18 1.15,-1.06 1.26,-0.91 1.37,-0.75 1.44,-0.58 1.51,-0.40 1.54,-0.22 1.57,-0.03 1.55,0.15 1.53,0.34 1.46,0.52 1.40,0.70 1.30,0.85 1.19,1.01 1.05,1.14 0.91,1.27 0.75,1.36 0.58,1.45 0.40,1.50 0.22,1.55 0.22,1.55 L 0.22,1.55 Z"/></g><g transform="translate(184 319) rotate(0 149.5 -50)" stroke="none"><path fill="#1e1e1e" d="M 1.32,-0.82 Q 1.32,-0.82 2.72,1.47 4.11,3.77 7.98,6.59 11.85,9.41 19.84,14.40 27.84,19.39 41.53,25.81 55.22,32.22 82.21,38.37 109.20,44.52 135.04,48.30 160.89,52.07 187.89,51.38 214.88,50.68 242.36,44.08 269.85,37.49 296.43,26.09 323.02,14.69 346.35,0.10 369.67,-14.48 388.74,-30.99 407.82,-47.49 422.19,-65.94 436.57,-84.39 445.53,-101.37 454.49,-118.36 458.57,-131.26 462.65,-144.16 464.38,-153.92 466.11,-163.68 466.27,-170.06 466.43,-176.45 466.22,-179.72 466.00,-182.99 465.79,-183.82 465.57,-184.65 465.58,-184.84 465.59,-185.03 465.65,-185.21 465.70,-185.39 465.80,-185.55 465.90,-185.71 466.03,-185.85 466.16,-185.98 466.32,-186.08 466.48,-186.18 466.66,-186.23 466.84,-186.29 467.03,-186.30 467.22,-186.31 467.40,-186.28 467.59,-186.25 467.76,-186.17 467.93,-186.09 468.08,-185.98 468.23,-185.86 468.35,-185.71 468.46,-185.57 468.54,-185.40 468.62,-185.22 468.65,-185.04 468.69,-184.85 468.81,-182.06 468.94,-179.26 469.90,-171.48 470.87,-163.69 471.86,-151.73 472.85,-139.76 472.69,-124.84 472.54,-109.93 469.29,-95.14 466.04,-80.35 458.52,-67.29 450.99,-54.23 433.52,-45.68 416.04,-37.13 402.26,-33.54 388.48,-29.96 357.16,-33.03 325.84,-36.11 305.08,-40.31 284.32,-44.51 252.47,-54.36 220.61,-64.21 194.43,-72.99 168.25,-81.77 145.94,-88.37 123.64,-94.97 107.06,-97.18 90.49,-99.39 78.75,-97.49 67.01,-95.59 58.75,-88.30 50.50,-81.01 44.42,-69.41 38.35,-57.80 34.31,-45.14 30.28,-32.47 27.99,-21.36 25.69,-10.25 24.72,-0.11 23.75,10.02 23.34,17.21 22.92,24.41 22.16,29.26 21.40,34.12 20.34,36.71 19.28,39.29 16.34,40.53 13.40,41.77 8.94,42.23 4.48,42.68 0.07,43.15 -4.33,43.61 -7.38,43.81 -10.43,44.01 -13.35,44.66 -16.26,45.30 -19.23,46.15 -22.19,46.99 -26.13,47.66 -30.07,48.33 -36.10,48.61 -42.13,48.90 -48.76,48.44 -55.40,47.98 -59.36,47.50 -63.33,47.01 -64.95,47.00 -66.56,46.98 -67.37,48.56 -68.17,50.14 -70.63,55.13 -73.09,60.12 -77.08,66.08 -81.06,72.05 -85.71,76.39 -90.37,80.73 -94.44,83.19 -98.52,85.65 -103.88,86.45 -109.25,87.24 -117.92,86.11 -126.60,84.98 -134.88,83.05 -143.16,81.12 -150.49,77.96 -157.83,74.81 -162.14,72.28 -166.46,69.76 -169.01,66.23 -171.57,62.70 -172.66,59.96 -173.74,57.21 -173.33,52.37 -172.93,47.53 -168.34,39.88 -163.76,32.23 -158.56,27.23 -153.37,22.22 -140.95,17.43 -128.52,12.65 -110.56,9.49 -92.60,6.33 -72.29,4.99 -51.99,3.65 -33.02,3.08 -14.05,2.52 2.96,3.43 19.99,4.34 27.77,4.73 35.55,5.11 39.14,5.28 42.74,5.44 44.27,5.41 45.81,5.37 46.05,5.42 46.29,5.47 46.50,5.60 46.71,5.72 46.87,5.91 47.03,6.10 47.13,6.32 47.22,6.55 47.24,6.80 47.25,7.04 47.19,7.28 47.12,7.52 46.99,7.72 46.85,7.93 46.65,8.08 46.46,8.23 46.23,8.31 45.99,8.39 45.75,8.39 45.50,8.40 45.27,8.32 45.03,8.24 44.84,8.10 44.64,7.95 44.50,7.75 44.36,7.54 44.29,7.31 44.22,7.07 44.23,6.82 44.25,6.58 44.34,6.35 44.42,6.12 44.58,5.93 44.74,5.74 44.95,5.61 45.16,5.48 45.40,5.43 45.64,5.37 45.89,5.40 46.13,5.42 46.36,5.52 46.58,5.62 46.76,5.79 46.94,5.96 47.06,6.18 47.17,6.39 47.22,6.64 47.26,6.88 47.22,7.12 47.18,7.37 47.07,7.58 46.96,7.80 46.78,7.97 46.60,8.14 46.38,8.25 46.15,8.36 45.91,8.38 45.67,8.41 45.67,8.41 45.67,8.41 44.14,8.24 42.62,8.06 39.02,7.90 35.42,7.74 27.63,7.35 19.84,6.96 2.93,6.05 -13.97,5.14 -32.89,5.71 -51.82,6.27 -71.98,7.59 -92.15,8.91 -109.87,12.01 -127.59,15.11 -139.61,19.63 -151.62,24.16 -156.57,28.89 -161.53,33.62 -165.94,40.76 -170.35,47.89 -170.81,52.14 -171.27,56.39 -170.34,58.79 -169.41,61.20 -167.23,64.37 -165.05,67.55 -160.92,69.97 -156.79,72.39 -149.67,75.47 -142.55,78.55 -134.40,80.45 -126.25,82.36 -117.92,83.49 -109.59,84.61 -104.70,83.97 -99.81,83.33 -96.00,81.05 -92.18,78.76 -87.74,74.65 -83.30,70.53 -79.42,64.72 -75.54,58.91 -73.02,53.78 -70.51,48.65 -69.07,46.71 -67.63,44.76 -65.33,44.58 -63.02,44.40 -59.12,44.88 -55.21,45.36 -48.73,45.82 -42.25,46.27 -36.38,46.01 -30.50,45.74 -26.71,45.10 -22.91,44.47 -19.87,43.60 -16.82,42.74 -13.72,42.06 -10.61,41.39 -7.61,41.20 -4.61,41.00 -0.18,40.53 4.23,40.07 8.37,39.68 12.51,39.30 14.93,38.56 17.35,37.83 18.08,35.77 18.81,33.70 19.56,28.98 20.30,24.25 20.72,17.01 21.14,9.77 22.13,-0.50 23.12,-10.78 25.45,-22.03 27.77,-33.27 31.90,-46.15 36.02,-59.02 42.38,-70.98 48.74,-82.95 57.56,-90.52 66.39,-98.09 78.60,-100.04 90.81,-102.00 107.59,-99.74 124.38,-97.49 146.73,-90.88 169.09,-84.26 195.24,-75.49 221.38,-66.72 253.11,-56.90 284.85,-47.09 305.47,-42.91 326.10,-38.73 356.99,-35.61 387.87,-32.50 401.39,-36.00 414.91,-39.50 431.91,-47.61 448.91,-55.72 456.20,-68.34 463.49,-80.95 466.70,-95.46 469.91,-109.97 470.07,-124.75 470.23,-139.54 469.24,-151.46 468.26,-163.37 467.29,-171.20 466.32,-179.03 465.94,-181.84 465.57,-184.65 465.58,-184.84 465.59,-185.03 465.65,-185.21 465.70,-185.39 465.80,-185.55 465.90,-185.71 466.03,-185.84 466.16,-185.98 466.32,-186.08 466.48,-186.17 466.66,-186.23 466.84,-186.29 467.03,-186.30 467.22,-186.31 467.40,-186.28 467.59,-186.25 467.76,-186.17 467.93,-186.09 468.08,-185.98 468.23,-185.86 468.35,-185.71 468.46,-185.57 468.54,-185.40 468.62,-185.22 468.65,-185.04 468.69,-184.85 468.66,-184.01 468.63,-183.16 468.84,-179.77 469.06,-176.38 468.88,-169.80 468.70,-163.22 466.93,-153.29 465.16,-143.37 460.99,-130.25 456.82,-117.13 447.74,-99.96 438.65,-82.78 424.10,-64.14 409.55,-45.50 390.32,-28.87 371.08,-12.24 347.57,2.44 324.07,17.12 297.27,28.60 270.48,40.08 242.72,46.72 214.96,53.36 187.74,54.05 160.51,54.74 134.55,50.96 108.59,47.18 81.32,40.95 54.06,34.73 40.20,28.26 26.35,21.79 18.24,16.76 10.14,11.74 5.88,8.58 1.63,5.42 0.15,3.12 -1.32,0.82 -1.40,0.65 -1.48,0.48 -1.52,0.30 -1.55,0.11 -1.54,-0.07 -1.54,-0.25 -1.48,-0.43 -1.43,-0.61 -1.33,-0.78 -1.24,-0.94 -1.11,-1.08 -0.98,-1.21 -0.82,-1.31 -0.66,-1.41 -0.48,-1.47 -0.30,-1.53 -0.11,-1.54 0.07,-1.56 0.25,-1.52 0.44,-1.49 0.61,-1.42 0.78,-1.34 0.93,-1.23 1.08,-1.12 1.20,-0.97 1.32,-0.82 1.32,-0.82 L 1.32,-0.82 Z"/></g></svg>